<svg width="1080" height="1600" viewBox="0 0 1080 1600" fill="none" xmlns="http://www.w3.org/2000/svg">
<path d="M811.779 1186.17C872.246 1186.7 932.442 1159.97 972.655 1114.74C1000.37 1083.57 1018.49 1044.81 1046.14 1013.59C1073.79 982.364 1116.94 958.639 1156.47 971.888C1184.44 981.267 1203.68 1006.7 1218.79 1032.08C1233.91 1057.44 1247.39 1084.91 1270.34 1103.47C1302.23 1129.27 1347.55 1133.02 1387.35 1123.16C1427.14 1113.28 1462.8 1091.52 1497.75 1070.05V1159.44C1483.24 1196.45 1449.17 1221.84 1410.42 1230.55C1371.68 1239.26 1330.53 1231.78 1294.37 1215.37C1258.2 1198.95 1226.52 1174.03 1197.29 1147.13C1179.12 1130.39 1159.6 1111.78 1134.99 1109.83C1107.89 1107.69 1083.46 1126.95 1067.43 1148.95C1051.39 1170.95 1040.55 1196.62 1022.76 1217.23C993.438 1251.19 945.534 1267.97 901.47 1259.68C857.406 1251.4 826.816 1228.5 811.779 1186.19V1186.17Z" fill="url(#paint0_linear_278_403)" style="mix-blend-mode:overlay"/>
<path d="M555.912 1201.97C591.333 1199.63 625.316 1217.16 652.799 1239.55C733.333 1305.16 774.762 1414.11 865.788 1464.25C922.131 1495.29 989.2 1498.8 1053.58 1499.29C1159.54 1500.09 1265.56 1494.67 1370.89 1483.07L1594 1260.63C1491.9 1254.18 1405.12 1281.58 1307.64 1312.51C1210.16 1343.45 1106.37 1370.68 1006.62 1348.06C923.962 1329.32 853.097 1278.35 777.858 1239.44C702.619 1200.52 634.444 1170.16 555.912 1201.97Z" fill="url(#paint1_linear_278_403)" style="mix-blend-mode:overlay"/>
<path d="M604.649 1202.71C667.082 1185 714.746 1132.79 743.606 1074.83C772.477 1016.86 785.535 952.618 801.189 889.806C816.844 826.994 836.079 763.385 874.932 711.543C928.109 640.584 1013.79 598.852 1101.32 583.674C1188.85 568.496 1278.79 577.465 1366.42 592.128C1363.66 654.486 1397.91 771.901 1414.89 831.988C1293.03 806.135 1137.44 792.662 1045.28 876.247C997.594 919.5 961.375 973.575 924.196 1026.08C887.005 1078.6 847.537 1130.93 795.38 1168.72C743.224 1206.51 667.205 1218.26 604.649 1202.71Z" fill="url(#paint2_linear_278_403)" style="mix-blend-mode:overlay"/>
<path d="M967.482 173.54C958.451 223.749 959.557 275.126 958.771 326.135C957.984 377.143 955.134 428.913 938.694 477.193C922.242 525.485 890.506 570.496 844.677 592.866C922.132 571.7 988.038 512.014 1016.78 437.026C1034.55 390.639 1038.62 339.864 1056.6 293.551C1079.4 234.787 1125 185.216 1181.63 157.598C1269.26 114.861 1375.23 125.223 1463.63 84.1212C1461.43 85.1414 1416.83 39.2707 1411.76 34.9073C1392.81 18.5846 1373.05 3.20836 1352.57 -11.1477C1312.58 -39.1962 1269.86 -63.3607 1225.2 -83.1372C1208.02 -90.7454 1185.55 -105.102 1166.51 -98.8945C1148.32 -92.9578 1127.76 -74.558 1112.69 -62.9674C1077.67 -36.062 1047.39 -3.06015 1023.32 33.9609C995.84 76.2548 976.427 123.883 967.494 173.576L967.482 173.54Z" fill="url(#paint3_linear_278_403)" style="mix-blend-mode:overlay"/>
<path d="M856.32 -138.73C853.178 -101.344 861.513 -64.0438 869.8 -27.4462C876.06 0.21767 882.321 27.8816 888.582 55.5454C889.417 -23.2196 933.955 -100.112 1001.74 -139.79C1013.79 -146.838 1027.45 -153.813 1032.72 -166.776C1039.62 -183.756 1028 -203.645 1012.09 -212.652C996.171 -221.66 977.192 -222.732 958.998 -224.494C929.4 -227.365 910.851 -243.138 888.177 -217.926C868.768 -196.338 858.739 -167.392 856.333 -138.718L856.32 -138.73Z" fill="url(#paint4_linear_278_403)" style="mix-blend-mode:overlay"/>
<path d="M546.051 1301.56C849.73 1301.56 1095.91 1068.08 1095.91 780.07C1095.91 492.06 849.73 258.582 546.051 258.582C242.372 258.582 -3.80899 492.06 -3.80899 780.07C-3.80899 1068.08 242.372 1301.56 546.051 1301.56Z" fill="url(#paint5_radial_278_403)"/>
<path d="M391.089 1165.54C327.31 1168.22 264.185 1184.07 207.363 1211.67C188.237 1220.97 168.188 1233.54 162.903 1253.3C155.623 1280.53 179.553 1306.43 182.115 1334.42C185.074 1366.84 158.55 1395.63 128.553 1411.44C75.9877 1439.15 12.7765 1439.02 -47.347 1439.87C-107.471 1440.72 -171.486 1444.5 -220.213 1477.9L-211.314 1619.99C-161.076 1576.32 -97.4142 1563.5 -29.7109 1556.12C37.9924 1548.74 107.615 1547.16 171.276 1524.08C234.927 1500.99 293.153 1449.93 298.342 1385.48C300.765 1355.42 291.566 1325.11 295.726 1295.21C302.952 1243.33 335.919 1164.4 391.089 1165.53V1165.54Z" fill="url(#paint6_linear_278_403)" style="mix-blend-mode:overlay"/>
<path d="M224.731 1063.12C188.837 1068.45 152.729 1053.5 123.278 1033.33C93.8275 1013.15 68.8046 987.647 39.5041 967.261C10.2035 946.874 -25.5725 931.46 -61.5844 936.056C-89.3197 939.594 -114.6 955.059 -131.796 976.005C-148.993 996.951 -158.503 1022.99 -161.654 1049.37C-164.731 1075.13 -162.094 1101.84 -170.724 1126.44C-180.899 1155.44 -205.879 1178.07 -234.086 1192.84C-262.293 1207.62 -293.834 1215.5 -325 1223.24C-301.907 1258.18 -284.592 1292.48 -261.499 1327.43C-204.249 1306.84 -150.966 1269.26 -123.241 1217.48C-106.72 1186.63 -97.1247 1151.98 -74.3961 1124.91C-49.534 1095.31 -10.5631 1077.87 29.1583 1074.31C68.8797 1070.75 109.148 1080.28 144.752 1097.35C168.993 1108.97 195.945 1124.52 221.322 1115.31C219.028 1094.55 217.795 1082.94 224.731 1063.13V1063.12Z" fill="url(#paint7_linear_278_403)" style="mix-blend-mode:overlay"/>
<path d="M-199.993 713.104C-155.34 693.47 -110.698 673.836 -66.0445 654.192C-30.322 638.483 5.75421 622.661 44.2427 614.771C82.7204 606.881 124.361 607.491 159.794 623.77C209.036 646.393 238.733 695.026 258.985 743.232C279.237 791.437 293.539 842.856 325.251 885.154C368.875 943.355 444.898 978.302 520.106 974.733C482.636 989.08 446.924 1005.42 407.064 1011.72C367.203 1018.03 325.144 1016.67 287.889 1001.8C237.714 981.789 201.531 940.071 166.698 900.406C131.866 860.752 93.7952 819.989 42.3021 803.273C-6.72509 787.36 -61.6489 796.003 -108.821 816.338C-155.994 836.674 -196.884 867.859 -237.227 898.708C-215.238 833.797 -206.179 781.015 -199.982 713.084L-199.993 713.104Z" fill="url(#paint8_linear_278_403)" style="mix-blend-mode:overlay"/>
<path d="M-60.5663 283.117C1.48697 299.914 36.5769 326.259 62.6075 382.253C72.9211 404.419 97.8475 446.748 115.87 463.931C133.034 480.291 159.504 487.297 183.123 481.735C135.339 489.676 87.4374 468.893 46.9763 443.494C6.51512 418.105 -17.7573 367.693 -63.075 351.282C-126.179 328.435 -202.673 359.477 -260.513 388.435C-256.514 354.729 -250.5 311.719 -215.485 294.769C-169.46 272.481 -109.583 269.858 -60.5663 283.127V283.117Z" fill="url(#paint9_linear_278_403)" style="mix-blend-mode:overlay"/>
<path d="M53.7201 73.9032C62.372 113.009 62.8973 153.711 75.1622 191.931C89.7428 237.361 121.145 277.718 162.528 304.215C97.4619 293.366 38.314 253.782 5.53986 199.14C-9.7376 173.68 -19.601 145.17 -38.2555 121.845C-61.7346 92.5002 -98.7864 73.405 -137.404 70.7512C-147.653 70.0496 -158.192 70.4055 -167.873 67.1314C-177.554 63.8676 -186.409 55.7028 -186.173 45.9213C-185.981 38.0514 -180.191 31.4525 -174.606 25.6467C-140.641 -9.62555 -102.839 -41.5424 -62.0133 -69.4531C-37.4622 -86.2402 -28.8425 -75.8893 -11.3886 -55.5028C3.52429 -38.0853 16.4002 -19.0816 26.9604 1.02017C39.0752 24.1012 48.1452 48.6463 53.7308 73.9032H53.7201Z" fill="url(#paint10_linear_278_403)" style="mix-blend-mode:overlay"/>
<path d="M898.782 -6.39218C896.038 24.457 903.317 55.2351 910.554 85.4335C916.022 108.26 921.49 131.087 926.957 153.914C927.686 88.9211 966.582 25.4738 1025.78 -7.26662C1036.3 -13.0826 1048.23 -18.8376 1052.83 -29.5342C1058.86 -43.5455 1048.72 -59.9563 1034.82 -67.389C1020.92 -74.8217 1004.34 -75.7063 988.453 -77.1603C962.605 -79.5294 946.405 -92.5442 926.603 -71.7409C909.654 -53.9268 900.895 -30.0426 898.793 -6.38201L898.782 -6.39218Z" fill="url(#paint11_linear_278_403)" style="mix-blend-mode:overlay"/>
<defs>
<linearGradient id="paint0_linear_278_403" x1="1381.12" y1="1053.14" x2="974.645" y2="1215.48" gradientUnits="userSpaceOnUse">
<stop offset="0.04" stop-color="#B2F0F9"/>
<stop offset="1" stop-color="#FFFDC2"/>
</linearGradient>
<linearGradient id="paint1_linear_278_403" x1="1166.11" y1="1332.94" x2="786.71" y2="1154.87" gradientUnits="userSpaceOnUse">
<stop stop-color="#AAF2C3"/>
<stop offset="1" stop-color="#FFFDC2"/>
</linearGradient>
<linearGradient id="paint2_linear_278_403" x1="1213.73" y1="697.923" x2="887.342" y2="1043.85" gradientUnits="userSpaceOnUse">
<stop offset="0.04" stop-color="#B2F0F9"/>
<stop offset="1" stop-color="#FFFDC2"/>
</linearGradient>
<linearGradient id="paint3_linear_278_403" x1="1223.72" y1="98.5388" x2="943.539" y2="848.664" gradientUnits="userSpaceOnUse">
<stop offset="0.04" stop-color="#B2F0F9"/>
<stop offset="1" stop-color="#FFFDC2"/>
</linearGradient>
<linearGradient id="paint4_linear_278_403" x1="946.734" y1="-167.035" x2="838.792" y2="120.983" gradientUnits="userSpaceOnUse">
<stop offset="0.04" stop-color="#B2F0F9"/>
<stop offset="1" stop-color="#FFFDC2"/>
</linearGradient>
<radialGradient id="paint5_radial_278_403" cx="0" cy="0" r="1" gradientUnits="userSpaceOnUse" gradientTransform="translate(546.051 780.07) scale(549.86 521.488)">
<stop offset="0.13" stop-color="#FFEFA1"/>
<stop offset="0.21" stop-color="#FFEFA5" stop-opacity="0.95"/>
<stop offset="0.35" stop-color="#FFF1B2" stop-opacity="0.82"/>
<stop offset="0.55" stop-color="#FFF5C6" stop-opacity="0.6"/>
<stop offset="0.78" stop-color="#FFFAE2" stop-opacity="0.3"/>
<stop offset="1" stop-color="white" stop-opacity="0"/>
</radialGradient>
<linearGradient id="paint6_linear_278_403" x1="-21.6166" y1="1505.57" x2="206.469" y2="1314.47" gradientUnits="userSpaceOnUse">
<stop stop-color="#AAF2C3"/>
<stop offset="1" stop-color="#FFFDC2"/>
</linearGradient>
<linearGradient id="paint7_linear_278_403" x1="-352.96" y1="1170.78" x2="103.947" y2="1066.79" gradientUnits="userSpaceOnUse">
<stop offset="0.04" stop-color="#B2F0F9"/>
<stop offset="1" stop-color="#FFFDC2"/>
</linearGradient>
<linearGradient id="paint8_linear_278_403" x1="-74.2997" y1="740.883" x2="272.484" y2="958.536" gradientUnits="userSpaceOnUse">
<stop offset="0.04" stop-color="#B2F0F9"/>
<stop offset="1" stop-color="#FFFDC2"/>
</linearGradient>
<linearGradient id="paint9_linear_278_403" x1="-162.888" y1="319.863" x2="277.202" y2="728.29" gradientUnits="userSpaceOnUse">
<stop offset="0.04" stop-color="#B2F0F9"/>
<stop offset="1" stop-color="#FFFDC2"/>
</linearGradient>
<linearGradient id="paint10_linear_278_403" x1="-79.6172" y1="13.8622" x2="374.109" y2="434.943" gradientUnits="userSpaceOnUse">
<stop offset="0.04" stop-color="#B2F0F9"/>
<stop offset="1" stop-color="#FFFDC2"/>
</linearGradient>
<linearGradient id="paint11_linear_278_403" x1="977.743" y1="-29.7477" x2="892.461" y2="211.091" gradientUnits="userSpaceOnUse">
<stop offset="0.04" stop-color="#B2F0F9"/>
<stop offset="1" stop-color="#FFFDC2"/>
</linearGradient>
</defs>
</svg>
